<svg xmlns="http://www.w3.org/2000/svg" version="1.1" xmlns:xlink="http://www.w3.org/1999/xlink" xmlns:svgjs="http://svgjs.dev/svgjs" width="1500" height="1500" viewBox="0 0 1500 1500"><rect width="1500" height="1500" fill="#000000"></rect><g transform="matrix(0.6666666666666666,0,0,0.6666666666666666,249.39393939393938,435.99032258064517)"><svg viewBox="0 0 396 248" data-background-color="#333b6a" preserveAspectRatio="xMidYMid meet" height="939" width="1500" xmlns="http://www.w3.org/2000/svg" xmlns:xlink="http://www.w3.org/1999/xlink"><g id="tight-bounds" transform="matrix(1,0,0,1,0.2400000000000091,0.4000000000000057)"><svg viewBox="0 0 395.52 247.2" height="247.2" width="395.52"><g><svg></svg></g><g><svg viewBox="0 0 395.52 247.2" height="247.2" width="395.52"><g transform="matrix(1,0,0,1,116.37541111417728,47.215199999999996)"><svg viewBox="0 0 162.76917777164542 152.7696" height="152.7696" width="162.76917777164542"><g><svg viewBox="0 0 245.65351679999995 230.56201434388987" height="152.7696" width="162.76917777164542"><g><rect width="245.65351679999995" height="3.310766132252725" x="0" y="159.10179773946646" fill="#ffffff" opacity="1" stroke-width="0" stroke="transparent" fill-opacity="1" class="rect-yte-0" data-fill-palette-color="primary" rx="1%" id="yte-0" data-palette-color="#b7feae"></rect></g><g transform="matrix(1,0,0,1,0.6110783999999825,171.07949091950118)"><svg viewBox="0 0 244.43135999999998 59.48252342438869" height="59.48252342438869" width="244.43135999999998"><g id="textblocktransform"><svg viewBox="0 0 244.43135999999998 59.48252342438869" height="59.48252342438869" width="244.43135999999998" id="textblock"><g><svg viewBox="0 0 244.43135999999998 36.712444500000004" height="36.712444500000004" width="244.43135999999998"><g transform="matrix(1,0,0,1,0,0)"><svg width="244.43135999999998" viewBox="3 -37.7 255.97000000000003 38.45" height="36.712444500000004" data-palette-color="#b7feae"><path d="M24.7 0L18.3 0 18.3-15.5 9.35-15.5 9.35 0 3 0 3-34.55 9.35-34.55 9.35-20.6 18.3-20.6 18.3-34.55 24.7-34.55 24.7 0ZM49.35-13.85Q49.35-13.4 49.2-11.3L49.2-11.3 35.55-11.3Q35.75-7.2 36.97-5.58 38.2-3.95 40.45-3.95L40.45-3.95Q42-3.95 43.25-4.48 44.5-5 45.95-6.15L45.95-6.15 48.5-2.65Q45 0.75 40.1 0.75L40.1 0.75Q34.9 0.75 32.12-2.85 29.35-6.45 29.35-13L29.35-13Q29.35-19.55 32-23.35 34.65-27.15 39.5-27.15L39.5-27.15Q44.15-27.15 46.75-23.78 49.35-20.4 49.35-13.85L49.35-13.85ZM43.35-15.3L43.35-15.65Q43.35-19.4 42.45-21.13 41.55-22.85 39.55-22.85L39.55-22.85Q37.7-22.85 36.72-21.18 35.75-19.5 35.55-15.3L35.55-15.3 43.35-15.3ZM70.55-6.4Q70.55-5.1 70.9-4.48 71.25-3.85 72.05-3.45L72.05-3.45 70.8 0.65Q68.75 0.4 67.52-0.45 66.3-1.3 65.7-3.05L65.7-3.05Q63.4 0.75 59.25 0.75L59.25 0.75Q55.95 0.75 54-1.48 52.05-3.7 52.05-7.4L52.05-7.4Q52.05-11.7 54.72-13.95 57.4-16.2 62.5-16.2L62.5-16.2 64.55-16.2 64.55-18.05Q64.55-20.55 63.67-21.58 62.8-22.6 60.84-22.6L60.84-22.6Q58.5-22.6 55-21.3L55-21.3 53.59-25.3Q55.59-26.2 57.75-26.68 59.9-27.15 61.84-27.15L61.84-27.15Q70.55-27.15 70.55-18.35L70.55-18.35 70.55-6.4ZM60.9-3.7Q63.3-3.7 64.55-7L64.55-7 64.55-12.55 63.09-12.55Q60.55-12.55 59.37-11.4 58.2-10.25 58.2-7.85L58.2-7.85Q58.2-5.8 58.9-4.75 59.59-3.7 60.9-3.7L60.9-3.7ZM81.94 0.75Q79.24 0.75 77.67-0.93 76.09-2.6 76.09-5.4L76.09-5.4 76.09-37.05 82.24-37.7 82.24-5.65Q82.24-5 82.54-4.6 82.84-4.2 83.44-4.2L83.44-4.2Q83.79-4.2 84.12-4.3 84.44-4.4 84.54-4.4L84.54-4.4 85.74-0.2Q84.04 0.75 81.94 0.75L81.94 0.75ZM99.94-5L102.09-1.2Q99.64 0.75 96.34 0.75L96.34 0.75Q92.89 0.75 91.09-1.23 89.29-3.2 89.29-6.6L89.29-6.6 89.29-22 86.19-22 86.19-26.45 89.29-26.45 89.29-32.3 95.44-33.05 95.44-26.45 100.44-26.45 99.84-22 95.44-22 95.44-6.6Q95.44-4.2 97.49-4.2L97.49-4.2Q98.14-4.2 98.64-4.38 99.14-4.55 99.94-5L99.94-5ZM116.99-27.15Q119.84-27.15 121.49-25.1 123.14-23.05 123.14-19.6L123.14-19.6 123.14 0 116.99 0 116.99-18.9Q116.99-20.8 116.46-21.63 115.94-22.45 114.94-22.45L114.94-22.45Q112.84-22.45 110.79-18.5L110.79-18.5 110.79 0 104.64 0 104.64-37 110.79-37.65 110.79-23.3Q112.04-25.25 113.51-26.2 114.99-27.15 116.99-27.15L116.99-27.15ZM152.34-27.15Q154.99-27.15 156.59-25.1 158.19-23.05 158.19-19.6L158.19-19.6 158.19 0 152.14 0 152.14-18.95Q152.14-20.85 151.64-21.68 151.14-22.5 150.19-22.5L150.19-22.5Q148.24-22.5 146.44-18.8L146.44-18.8 146.44 0 140.44 0 140.44-18.95Q140.44-22.5 138.54-22.5L138.54-22.5Q136.49-22.5 134.74-18.8L134.74-18.8 134.74 0 128.69 0 128.69-26.45 134.04-26.45 134.44-23.05Q137.04-27.15 140.69-27.15L140.69-27.15Q142.54-27.15 143.89-26 145.24-24.85 145.94-22.75L145.94-22.75Q148.59-27.15 152.34-27.15L152.34-27.15ZM180.58-6.4Q180.58-5.1 180.93-4.48 181.28-3.85 182.08-3.45L182.08-3.45 180.83 0.65Q178.78 0.4 177.56-0.45 176.33-1.3 175.73-3.05L175.73-3.05Q173.43 0.75 169.28 0.75L169.28 0.75Q165.98 0.75 164.03-1.48 162.08-3.7 162.08-7.4L162.08-7.4Q162.08-11.7 164.76-13.95 167.43-16.2 172.53-16.2L172.53-16.2 174.58-16.2 174.58-18.05Q174.58-20.55 173.71-21.58 172.83-22.6 170.88-22.6L170.88-22.6Q168.53-22.6 165.03-21.3L165.03-21.3 163.63-25.3Q165.63-26.2 167.78-26.68 169.93-27.15 171.88-27.15L171.88-27.15Q180.58-27.15 180.58-18.35L180.58-18.35 180.58-6.4ZM170.93-3.7Q173.33-3.7 174.58-7L174.58-7 174.58-12.55 173.13-12.55Q170.58-12.55 169.41-11.4 168.23-10.25 168.23-7.85L168.23-7.85Q168.23-5.8 168.93-4.75 169.63-3.7 170.93-3.7L170.93-3.7ZM193.73-27.15Q198.43-27.15 201.68-24.05L201.68-24.05 199.33-20.7Q197.93-21.7 196.68-22.2 195.43-22.7 194.13-22.7L194.13-22.7Q192.68-22.7 191.86-21.93 191.03-21.15 191.03-19.8L191.03-19.8Q191.03-18.45 191.96-17.63 192.88-16.8 195.68-15.7L195.68-15.7Q199.13-14.35 200.78-12.5 202.43-10.65 202.43-7.55L202.43-7.55Q202.43-3.7 199.73-1.48 197.03 0.75 192.88 0.75L192.88 0.75Q190.18 0.75 187.91-0.23 185.63-1.2 183.93-2.95L183.93-2.95 186.93-6.25Q189.73-3.8 192.63-3.8L192.63-3.8Q194.28-3.8 195.23-4.67 196.18-5.55 196.18-7.1L196.18-7.1Q196.18-8.25 195.78-8.97 195.38-9.7 194.38-10.33 193.38-10.95 191.38-11.7L191.38-11.7Q187.93-13.05 186.46-14.85 184.98-16.65 184.98-19.45L184.98-19.45Q184.98-22.8 187.36-24.98 189.73-27.15 193.73-27.15L193.73-27.15ZM217.43-5L219.58-1.2Q217.13 0.75 213.83 0.75L213.83 0.75Q210.38 0.75 208.58-1.23 206.78-3.2 206.78-6.6L206.78-6.6 206.78-22 203.68-22 203.68-26.45 206.78-26.45 206.78-32.3 212.93-33.05 212.93-26.45 217.93-26.45 217.33-22 212.93-22 212.93-6.6Q212.93-4.2 214.98-4.2L214.98-4.2Q215.63-4.2 216.13-4.38 216.63-4.55 217.43-5L217.43-5ZM240.98-13.85Q240.98-13.4 240.83-11.3L240.83-11.3 227.18-11.3Q227.38-7.2 228.6-5.58 229.83-3.95 232.08-3.95L232.08-3.95Q233.63-3.95 234.88-4.48 236.13-5 237.58-6.15L237.58-6.15 240.13-2.65Q236.63 0.75 231.73 0.75L231.73 0.75Q226.53 0.75 223.75-2.85 220.98-6.45 220.98-13L220.98-13Q220.98-19.55 223.63-23.35 226.28-27.15 231.13-27.15L231.13-27.15Q235.78-27.15 238.38-23.78 240.98-20.4 240.98-13.85L240.98-13.85ZM234.98-15.3L234.98-15.65Q234.98-19.4 234.08-21.13 233.18-22.85 231.18-22.85L231.18-22.85Q229.33-22.85 228.35-21.18 227.38-19.5 227.18-15.3L227.18-15.3 234.98-15.3ZM256.92-27.1Q258.07-27.1 258.97-26.75L258.97-26.75 257.97-20.85Q256.97-21.1 256.12-21.1L256.12-21.1Q254.22-21.1 253.12-19.45 252.02-17.8 251.42-14.55L251.42-14.55 251.42 0 245.27 0 245.27-26.45 250.62-26.45 251.07-21.85Q252.92-27.1 256.92-27.1L256.92-27.1Z" opacity="1" transform="matrix(1,0,0,1,0,0)" fill="#ffffff" class="wordmark-text-0" data-fill-palette-color="primary" id="text-0"></path></svg></g></svg></g><g transform="matrix(1,0,0,1,0,45.37937154778201)"><svg viewBox="0 0 244.43135999999998 14.103151876606681" height="14.103151876606681" width="244.43135999999998"><g transform="matrix(1,0,0,1,0,0)"><svg width="244.43135999999998" viewBox="-0.25 -39.65 875.25 50.5" height="14.103151876606681" data-palette-color="#b7feae"><path d="M17.85-34.55L24.35-34.55 15.25-13.15 15.25 0 8.85 0 8.85-13.1-0.25-34.55 6.5-34.55 12.15-18.3 17.85-34.55ZM36.35-27.15Q41.35-27.15 44.13-23.65 46.9-20.15 46.9-13.25L46.9-13.25Q46.9-6.65 44.1-2.95 41.3 0.75 36.35 0.75L36.35 0.75Q31.4 0.75 28.6-2.88 25.8-6.5 25.8-13.25L25.8-13.25Q25.8-19.95 28.6-23.55 31.4-27.15 36.35-27.15L36.35-27.15ZM36.35-22.5Q34.2-22.5 33.2-20.38 32.2-18.25 32.2-13.25L32.2-13.25Q32.2-8.2 33.2-6.08 34.2-3.95 36.35-3.95L36.35-3.95Q38.5-3.95 39.5-6.08 40.5-8.2 40.5-13.25L40.5-13.25Q40.5-18.3 39.5-20.4 38.5-22.5 36.35-22.5L36.35-22.5ZM69.6-26.45L69.6 0 64.25 0 63.95-3.35Q62.7-1.3 61.15-0.28 59.6 0.75 57.55 0.75L57.55 0.75Q54.65 0.75 52.98-1.3 51.3-3.35 51.3-6.65L51.3-6.65 51.3-26.45 57.45-26.45 57.45-7Q57.45-3.9 59.55-3.9L59.55-3.9Q60.75-3.9 61.7-4.83 62.65-5.75 63.45-7.45L63.45-7.45 63.45-26.45 69.6-26.45ZM86.95-27.1Q88.1-27.1 89-26.75L89-26.75 88-20.85Q87-21.1 86.15-21.1L86.15-21.1Q84.25-21.1 83.15-19.45 82.05-17.8 81.45-14.55L81.45-14.55 81.45 0 75.3 0 75.3-26.45 80.65-26.45 81.1-21.85Q82.95-27.1 86.95-27.1L86.95-27.1ZM113.9-27.15Q117.8-27.15 119.8-23.58 121.8-20 121.8-13.3L121.8-13.3Q121.8-6.8 119.53-3.03 117.25 0.75 113.2 0.75L113.2 0.75Q110 0.75 107.85-2.1L107.85-2.1 107.85 10.15 101.7 10.85 101.7-26.45 107.15-26.45 107.4-23.25Q108.7-25.25 110.3-26.2 111.9-27.15 113.9-27.15L113.9-27.15ZM111.55-3.95Q113.45-3.95 114.45-6.13 115.45-8.3 115.45-13.25L115.45-13.25Q115.45-18.45 114.6-20.5 113.75-22.55 111.95-22.55L111.95-22.55Q109.65-22.55 107.85-19.25L107.85-19.25 107.85-6.45Q109.45-3.95 111.55-3.95L111.55-3.95ZM145.25-13.85Q145.25-13.4 145.1-11.3L145.1-11.3 131.45-11.3Q131.65-7.2 132.88-5.58 134.1-3.95 136.35-3.95L136.35-3.95Q137.9-3.95 139.15-4.48 140.4-5 141.85-6.15L141.85-6.15 144.4-2.65Q140.9 0.75 136 0.75L136 0.75Q130.8 0.75 128.03-2.85 125.25-6.45 125.25-13L125.25-13Q125.25-19.55 127.9-23.35 130.55-27.15 135.4-27.15L135.4-27.15Q140.05-27.15 142.65-23.78 145.25-20.4 145.25-13.85L145.25-13.85ZM139.25-15.3L139.25-15.65Q139.25-19.4 138.35-21.13 137.45-22.85 135.45-22.85L135.45-22.85Q133.6-22.85 132.63-21.18 131.65-19.5 131.45-15.3L131.45-15.3 139.25-15.3ZM161.2-27.1Q162.35-27.1 163.25-26.75L163.25-26.75 162.25-20.85Q161.25-21.1 160.4-21.1L160.4-21.1Q158.5-21.1 157.4-19.45 156.3-17.8 155.7-14.55L155.7-14.55 155.7 0 149.55 0 149.55-26.45 154.9-26.45 155.35-21.85Q157.2-27.1 161.2-27.1L161.2-27.1ZM173.45-27.15Q178.15-27.15 181.4-24.05L181.4-24.05 179.05-20.7Q177.65-21.7 176.4-22.2 175.15-22.7 173.85-22.7L173.85-22.7Q172.4-22.7 171.58-21.93 170.75-21.15 170.75-19.8L170.75-19.8Q170.75-18.45 171.68-17.63 172.6-16.8 175.4-15.7L175.4-15.7Q178.85-14.35 180.5-12.5 182.15-10.65 182.15-7.55L182.15-7.55Q182.15-3.7 179.45-1.48 176.75 0.75 172.6 0.75L172.6 0.75Q169.9 0.75 167.63-0.23 165.35-1.2 163.65-2.95L163.65-2.95 166.65-6.25Q169.45-3.8 172.35-3.8L172.35-3.8Q174-3.8 174.95-4.67 175.9-5.55 175.9-7.1L175.9-7.1Q175.9-8.25 175.5-8.97 175.1-9.7 174.1-10.33 173.1-10.95 171.1-11.7L171.1-11.7Q167.65-13.05 166.18-14.85 164.7-16.65 164.7-19.45L164.7-19.45Q164.7-22.8 167.08-24.98 169.45-27.15 173.45-27.15L173.45-27.15ZM195.4-27.15Q200.4-27.15 203.18-23.65 205.95-20.15 205.95-13.25L205.95-13.25Q205.95-6.65 203.15-2.95 200.35 0.75 195.4 0.75L195.4 0.75Q190.45 0.75 187.65-2.88 184.85-6.5 184.85-13.25L184.85-13.25Q184.85-19.95 187.65-23.55 190.45-27.15 195.4-27.15L195.4-27.15ZM195.4-22.5Q193.25-22.5 192.25-20.38 191.25-18.25 191.25-13.25L191.25-13.25Q191.25-8.2 192.25-6.08 193.25-3.95 195.4-3.95L195.4-3.95Q197.55-3.95 198.55-6.08 199.55-8.2 199.55-13.25L199.55-13.25Q199.55-18.3 198.55-20.4 197.55-22.5 195.4-22.5L195.4-22.5ZM222.85-27.15Q225.7-27.15 227.35-25.1 229-23.05 229-19.6L229-19.6 229 0 222.85 0 222.85-18.9Q222.85-20.8 222.33-21.63 221.8-22.45 220.8-22.45L220.8-22.45Q218.7-22.45 216.65-18.5L216.65-18.5 216.65 0 210.5 0 210.5-26.45 215.85-26.45 216.3-23Q217.65-25.1 219.18-26.13 220.7-27.15 222.85-27.15L222.85-27.15ZM251.45-6.4Q251.45-5.1 251.8-4.48 252.15-3.85 252.95-3.45L252.95-3.45 251.7 0.65Q249.65 0.4 248.43-0.45 247.2-1.3 246.6-3.05L246.6-3.05Q244.3 0.75 240.15 0.75L240.15 0.75Q236.85 0.75 234.9-1.48 232.95-3.7 232.95-7.4L232.95-7.4Q232.95-11.7 235.63-13.95 238.3-16.2 243.4-16.2L243.4-16.2 245.45-16.2 245.45-18.05Q245.45-20.55 244.58-21.58 243.7-22.6 241.75-22.6L241.75-22.6Q239.4-22.6 235.9-21.3L235.9-21.3 234.5-25.3Q236.5-26.2 238.65-26.68 240.8-27.15 242.75-27.15L242.75-27.15Q251.45-27.15 251.45-18.35L251.45-18.35 251.45-6.4ZM241.8-3.7Q244.2-3.7 245.45-7L245.45-7 245.45-12.55 244-12.55Q241.45-12.55 240.28-11.4 239.1-10.25 239.1-7.85L239.1-7.85Q239.1-5.8 239.8-4.75 240.5-3.7 241.8-3.7L241.8-3.7ZM262.85 0.75Q260.15 0.75 258.58-0.93 257-2.6 257-5.4L257-5.4 257-37.05 263.15-37.7 263.15-5.65Q263.15-5 263.45-4.6 263.75-4.2 264.35-4.2L264.35-4.2Q264.7-4.2 265.03-4.3 265.35-4.4 265.45-4.4L265.45-4.4 266.65-0.2Q264.95 0.75 262.85 0.75L262.85 0.75ZM291.9-27.15Q294.75-27.15 296.4-25.1 298.05-23.05 298.05-19.6L298.05-19.6 298.05 0 291.9 0 291.9-18.9Q291.9-20.8 291.38-21.63 290.85-22.45 289.85-22.45L289.85-22.45Q287.75-22.45 285.7-18.5L285.7-18.5 285.7 0 279.55 0 279.55-37 285.7-37.65 285.7-23.3Q286.95-25.25 288.43-26.2 289.9-27.15 291.9-27.15L291.9-27.15ZM322.45-13.85Q322.45-13.4 322.3-11.3L322.3-11.3 308.65-11.3Q308.85-7.2 310.08-5.58 311.3-3.95 313.55-3.95L313.55-3.95Q315.1-3.95 316.35-4.48 317.6-5 319.05-6.15L319.05-6.15 321.6-2.65Q318.1 0.75 313.2 0.75L313.2 0.75Q308 0.75 305.23-2.85 302.45-6.45 302.45-13L302.45-13Q302.45-19.55 305.1-23.35 307.75-27.15 312.6-27.15L312.6-27.15Q317.25-27.15 319.85-23.78 322.45-20.4 322.45-13.85L322.45-13.85ZM316.45-15.3L316.45-15.65Q316.45-19.4 315.55-21.13 314.65-22.85 312.65-22.85L312.65-22.85Q310.8-22.85 309.83-21.18 308.85-19.5 308.65-15.3L308.65-15.3 316.45-15.3ZM343.65-6.4Q343.65-5.1 344-4.48 344.35-3.85 345.15-3.45L345.15-3.45 343.9 0.65Q341.85 0.4 340.63-0.45 339.4-1.3 338.8-3.05L338.8-3.05Q336.5 0.75 332.35 0.75L332.35 0.75Q329.05 0.75 327.1-1.48 325.15-3.7 325.15-7.4L325.15-7.4Q325.15-11.7 327.83-13.95 330.5-16.2 335.6-16.2L335.6-16.2 337.65-16.2 337.65-18.05Q337.65-20.55 336.78-21.58 335.9-22.6 333.95-22.6L333.95-22.6Q331.6-22.6 328.1-21.3L328.1-21.3 326.7-25.3Q328.7-26.2 330.85-26.68 333-27.15 334.95-27.15L334.95-27.15Q343.65-27.15 343.65-18.35L343.65-18.35 343.65-6.4ZM334-3.7Q336.4-3.7 337.65-7L337.65-7 337.65-12.55 336.2-12.55Q333.65-12.55 332.48-11.4 331.3-10.25 331.3-7.85L331.3-7.85Q331.3-5.8 332-4.75 332.7-3.7 334-3.7L334-3.7ZM355.05 0.75Q352.35 0.75 350.78-0.93 349.2-2.6 349.2-5.4L349.2-5.4 349.2-37.05 355.35-37.7 355.35-5.65Q355.35-5 355.65-4.6 355.95-4.2 356.55-4.2L356.55-4.2Q356.9-4.2 357.23-4.3 357.55-4.4 357.65-4.4L357.65-4.4 358.85-0.2Q357.15 0.75 355.05 0.75L355.05 0.75ZM373.05-5L375.2-1.2Q372.75 0.75 369.45 0.75L369.45 0.75Q366 0.75 364.2-1.23 362.4-3.2 362.4-6.6L362.4-6.6 362.4-22 359.3-22 359.3-26.45 362.4-26.45 362.4-32.3 368.55-33.05 368.55-26.45 373.55-26.45 372.95-22 368.55-22 368.55-6.6Q368.55-4.2 370.6-4.2L370.6-4.2Q371.25-4.2 371.75-4.38 372.25-4.55 373.05-5L373.05-5ZM390.1-27.15Q392.95-27.15 394.6-25.1 396.25-23.05 396.25-19.6L396.25-19.6 396.25 0 390.1 0 390.1-18.9Q390.1-20.8 389.58-21.63 389.05-22.45 388.05-22.45L388.05-22.45Q385.95-22.45 383.9-18.5L383.9-18.5 383.9 0 377.75 0 377.75-37 383.9-37.65 383.9-23.3Q385.15-25.25 386.63-26.2 388.1-27.15 390.1-27.15L390.1-27.15ZM435.3-27.15Q437.95-27.15 439.55-25.1 441.15-23.05 441.15-19.6L441.15-19.6 441.15 0 435.1 0 435.1-18.95Q435.1-20.85 434.6-21.68 434.1-22.5 433.15-22.5L433.15-22.5Q431.2-22.5 429.4-18.8L429.4-18.8 429.4 0 423.4 0 423.4-18.95Q423.4-22.5 421.5-22.5L421.5-22.5Q419.45-22.5 417.7-18.8L417.7-18.8 417.7 0 411.65 0 411.65-26.45 417-26.45 417.4-23.05Q420-27.15 423.65-27.15L423.65-27.15Q425.5-27.15 426.85-26 428.2-24.85 428.9-22.75L428.9-22.75Q431.55-27.15 435.3-27.15L435.3-27.15ZM463.55-6.4Q463.55-5.1 463.9-4.48 464.25-3.85 465.05-3.45L465.05-3.45 463.8 0.65Q461.75 0.4 460.53-0.45 459.3-1.3 458.7-3.05L458.7-3.05Q456.4 0.75 452.25 0.75L452.25 0.75Q448.95 0.75 447-1.48 445.05-3.7 445.05-7.4L445.05-7.4Q445.05-11.7 447.73-13.95 450.4-16.2 455.5-16.2L455.5-16.2 457.55-16.2 457.55-18.05Q457.55-20.55 456.68-21.58 455.8-22.6 453.85-22.6L453.85-22.6Q451.5-22.6 448-21.3L448-21.3 446.6-25.3Q448.6-26.2 450.75-26.68 452.9-27.15 454.85-27.15L454.85-27.15Q463.55-27.15 463.55-18.35L463.55-18.35 463.55-6.4ZM453.9-3.7Q456.3-3.7 457.55-7L457.55-7 457.55-12.55 456.1-12.55Q453.55-12.55 452.38-11.4 451.2-10.25 451.2-7.85L451.2-7.85Q451.2-5.8 451.9-4.75 452.6-3.7 453.9-3.7L453.9-3.7ZM481.7-27.15Q484.55-27.15 486.2-25.1 487.85-23.05 487.85-19.6L487.85-19.6 487.85 0 481.7 0 481.7-18.9Q481.7-20.8 481.18-21.63 480.65-22.45 479.65-22.45L479.65-22.45Q477.55-22.45 475.5-18.5L475.5-18.5 475.5 0 469.35 0 469.35-26.45 474.7-26.45 475.15-23Q476.5-25.1 478.03-26.13 479.55-27.15 481.7-27.15L481.7-27.15ZM510.3-6.4Q510.3-5.1 510.65-4.48 511-3.85 511.8-3.45L511.8-3.45 510.55 0.65Q508.5 0.4 507.28-0.45 506.05-1.3 505.45-3.05L505.45-3.05Q503.15 0.75 499 0.75L499 0.75Q495.7 0.75 493.75-1.48 491.8-3.7 491.8-7.4L491.8-7.4Q491.8-11.7 494.48-13.95 497.15-16.2 502.25-16.2L502.25-16.2 504.3-16.2 504.3-18.05Q504.3-20.55 503.43-21.58 502.55-22.6 500.6-22.6L500.6-22.6Q498.25-22.6 494.75-21.3L494.75-21.3 493.35-25.3Q495.35-26.2 497.5-26.68 499.65-27.15 501.6-27.15L501.6-27.15Q510.3-27.15 510.3-18.35L510.3-18.35 510.3-6.4ZM500.65-3.7Q503.05-3.7 504.3-7L504.3-7 504.3-12.55 502.85-12.55Q500.3-12.55 499.13-11.4 497.95-10.25 497.95-7.85L497.95-7.85Q497.95-5.8 498.65-4.75 499.35-3.7 500.65-3.7L500.65-3.7ZM534.05-29.85L535.6-25.1Q534.55-24.6 533.08-24.4 531.6-24.2 529.4-24.2L529.4-24.2Q531.5-23.2 532.53-21.53 533.55-19.85 533.55-17.4L533.55-17.4Q533.55-13.4 531.1-10.95 528.65-8.5 524.45-8.5L524.45-8.5Q523.2-8.5 521.9-8.9L521.9-8.9Q521-8.15 521-6.85L521-6.85Q521-5.85 521.55-5.35 522.1-4.85 523.6-4.85L523.6-4.85 526.4-4.85Q530.4-4.85 532.75-2.78 535.1-0.7 535.1 2.5L535.1 2.5Q535.1 6.3 532.18 8.58 529.25 10.85 523.85 10.85L523.85 10.85Q518.15 10.85 515.88 8.75 513.6 6.65 513.6 2.6L513.6 2.6 519.05 2.6Q519.05 4.75 520.05 5.65 521.05 6.55 523.9 6.55L523.9 6.55Q526.65 6.55 527.8 5.6 528.95 4.65 528.95 2.9L528.95 2.9Q528.95 1.2 528 0.4 527.05-0.4 525.05-0.4L525.05-0.4 523.15-0.4Q519.35-0.4 517.6-1.75 515.85-3.1 515.85-5.45L515.85-5.45Q515.85-6.8 516.58-8.03 517.3-9.25 518.55-10.2L518.55-10.2Q516.5-11.5 515.55-13.3 514.6-15.1 514.6-17.7L514.6-17.7Q514.6-22.05 517.2-24.58 519.8-27.1 524.2-27.1L524.2-27.1Q527.45-27.1 529.58-27.8 531.7-28.5 534.05-29.85L534.05-29.85ZM524.2-23Q522.45-23 521.55-21.75 520.65-20.5 520.65-17.8L520.65-17.8Q520.65-15.25 521.55-13.88 522.45-12.5 524.15-12.5L524.15-12.5Q525.9-12.5 526.75-13.73 527.6-14.95 527.6-17.85L527.6-17.85Q527.6-20.55 526.78-21.78 525.95-23 524.2-23L524.2-23ZM557.2-13.85Q557.2-13.4 557.05-11.3L557.05-11.3 543.4-11.3Q543.6-7.2 544.83-5.58 546.05-3.95 548.3-3.95L548.3-3.95Q549.85-3.95 551.1-4.48 552.35-5 553.8-6.15L553.8-6.15 556.35-2.65Q552.85 0.75 547.95 0.75L547.95 0.75Q542.75 0.75 539.98-2.85 537.2-6.45 537.2-13L537.2-13Q537.2-19.55 539.85-23.35 542.5-27.15 547.35-27.15L547.35-27.15Q552-27.15 554.6-23.78 557.2-20.4 557.2-13.85L557.2-13.85ZM551.2-15.3L551.2-15.65Q551.2-19.4 550.3-21.13 549.4-22.85 547.4-22.85L547.4-22.85Q545.55-22.85 544.58-21.18 543.6-19.5 543.4-15.3L543.4-15.3 551.2-15.3ZM585.15-27.15Q587.8-27.15 589.4-25.1 591-23.05 591-19.6L591-19.6 591 0 584.95 0 584.95-18.95Q584.95-20.85 584.45-21.68 583.95-22.5 583-22.5L583-22.5Q581.05-22.5 579.25-18.8L579.25-18.8 579.25 0 573.25 0 573.25-18.95Q573.25-22.5 571.35-22.5L571.35-22.5Q569.3-22.5 567.55-18.8L567.55-18.8 567.55 0 561.5 0 561.5-26.45 566.85-26.45 567.25-23.05Q569.85-27.15 573.5-27.15L573.5-27.15Q575.35-27.15 576.7-26 578.05-24.85 578.75-22.75L578.75-22.75Q581.4-27.15 585.15-27.15L585.15-27.15ZM615.35-13.85Q615.35-13.4 615.2-11.3L615.2-11.3 601.55-11.3Q601.75-7.2 602.98-5.58 604.2-3.95 606.45-3.95L606.45-3.95Q608-3.95 609.25-4.48 610.5-5 611.95-6.15L611.95-6.15 614.5-2.65Q611 0.75 606.1 0.75L606.1 0.75Q600.9 0.75 598.13-2.85 595.35-6.45 595.35-13L595.35-13Q595.35-19.55 598-23.35 600.65-27.15 605.5-27.15L605.5-27.15Q610.15-27.15 612.75-23.78 615.35-20.4 615.35-13.85L615.35-13.85ZM609.35-15.3L609.35-15.65Q609.35-19.4 608.45-21.13 607.55-22.85 605.55-22.85L605.55-22.85Q603.7-22.85 602.73-21.18 601.75-19.5 601.55-15.3L601.55-15.3 609.35-15.3ZM632-27.15Q634.85-27.15 636.5-25.1 638.15-23.05 638.15-19.6L638.15-19.6 638.15 0 632 0 632-18.9Q632-20.8 631.48-21.63 630.95-22.45 629.95-22.45L629.95-22.45Q627.85-22.45 625.8-18.5L625.8-18.5 625.8 0 619.65 0 619.65-26.45 625-26.45 625.45-23Q626.8-25.1 628.33-26.13 629.85-27.15 632-27.15L632-27.15ZM654.85-5L657-1.2Q654.55 0.75 651.25 0.75L651.25 0.75Q647.8 0.75 646-1.23 644.2-3.2 644.2-6.6L644.2-6.6 644.2-22 641.1-22 641.1-26.45 644.2-26.45 644.2-32.3 650.35-33.05 650.35-26.45 655.35-26.45 654.75-22 650.35-22 650.35-6.6Q650.35-4.2 652.4-4.2L652.4-4.2Q653.05-4.2 653.55-4.38 654.05-4.55 654.85-5L654.85-5ZM678.9-27.15Q681.05-27.15 682.8-26.43 684.55-25.7 686.15-24.15L686.15-24.15 683.5-20.65Q682.4-21.55 681.43-21.98 680.45-22.4 679.3-22.4L679.3-22.4Q677.05-22.4 675.9-20.28 674.75-18.15 674.75-13.1L674.75-13.1Q674.75-8.2 675.93-6.2 677.1-4.2 679.3-4.2L679.3-4.2Q680.4-4.2 681.3-4.6 682.2-5 683.4-5.85L683.4-5.85 686.15-2.3Q682.95 0.75 679 0.75L679 0.75Q673.9 0.75 671.08-2.73 668.25-6.2 668.25-13L668.25-13Q668.25-17.4 669.55-20.6 670.85-23.8 673.28-25.48 675.7-27.15 678.9-27.15L678.9-27.15ZM698.6-27.15Q703.6-27.15 706.38-23.65 709.15-20.15 709.15-13.25L709.15-13.25Q709.15-6.65 706.35-2.95 703.55 0.75 698.6 0.75L698.6 0.75Q693.65 0.75 690.85-2.88 688.05-6.5 688.05-13.25L688.05-13.25Q688.05-19.95 690.85-23.55 693.65-27.15 698.6-27.15L698.6-27.15ZM698.6-22.5Q696.45-22.5 695.45-20.38 694.45-18.25 694.45-13.25L694.45-13.25Q694.45-8.2 695.45-6.08 696.45-3.95 698.6-3.95L698.6-3.95Q700.75-3.95 701.75-6.08 702.75-8.2 702.75-13.25L702.75-13.25Q702.75-18.3 701.75-20.4 700.75-22.5 698.6-22.5L698.6-22.5ZM737.35-27.15Q740-27.15 741.6-25.1 743.2-23.05 743.2-19.6L743.2-19.6 743.2 0 737.15 0 737.15-18.95Q737.15-20.85 736.65-21.68 736.15-22.5 735.2-22.5L735.2-22.5Q733.25-22.5 731.45-18.8L731.45-18.8 731.45 0 725.45 0 725.45-18.95Q725.45-22.5 723.55-22.5L723.55-22.5Q721.5-22.5 719.75-18.8L719.75-18.8 719.75 0 713.7 0 713.7-26.45 719.05-26.45 719.45-23.05Q722.05-27.15 725.7-27.15L725.7-27.15Q727.55-27.15 728.9-26 730.25-24.85 730.95-22.75L730.95-22.75Q733.6-27.15 737.35-27.15L737.35-27.15ZM760.9-27.15Q764.8-27.15 766.8-23.58 768.8-20 768.8-13.3L768.8-13.3Q768.8-6.8 766.52-3.03 764.25 0.75 760.2 0.75L760.2 0.75Q757 0.75 754.85-2.1L754.85-2.1 754.85 10.15 748.7 10.85 748.7-26.45 754.15-26.45 754.4-23.25Q755.7-25.25 757.3-26.2 758.9-27.15 760.9-27.15L760.9-27.15ZM758.55-3.95Q760.45-3.95 761.45-6.13 762.45-8.3 762.45-13.25L762.45-13.25Q762.45-18.45 761.6-20.5 760.75-22.55 758.95-22.55L758.95-22.55Q756.65-22.55 754.85-19.25L754.85-19.25 754.85-6.45Q756.45-3.95 758.55-3.95L758.55-3.95ZM790.3-6.4Q790.3-5.1 790.65-4.48 791-3.85 791.8-3.45L791.8-3.45 790.55 0.65Q788.5 0.4 787.28-0.45 786.05-1.3 785.45-3.05L785.45-3.05Q783.15 0.75 779 0.75L779 0.75Q775.7 0.75 773.75-1.48 771.8-3.7 771.8-7.4L771.8-7.4Q771.8-11.7 774.48-13.95 777.15-16.2 782.25-16.2L782.25-16.2 784.3-16.2 784.3-18.05Q784.3-20.55 783.43-21.58 782.55-22.6 780.6-22.6L780.6-22.6Q778.25-22.6 774.75-21.3L774.75-21.3 773.35-25.3Q775.35-26.2 777.5-26.68 779.65-27.15 781.6-27.15L781.6-27.15Q790.3-27.15 790.3-18.35L790.3-18.35 790.3-6.4ZM780.65-3.7Q783.05-3.7 784.3-7L784.3-7 784.3-12.55 782.85-12.55Q780.3-12.55 779.13-11.4 777.95-10.25 777.95-7.85L777.95-7.85Q777.95-5.8 778.65-4.75 779.35-3.7 780.65-3.7L780.65-3.7ZM808.45-27.15Q811.3-27.15 812.95-25.1 814.6-23.05 814.6-19.6L814.6-19.6 814.6 0 808.45 0 808.45-18.9Q808.45-20.8 807.93-21.63 807.4-22.45 806.4-22.45L806.4-22.45Q804.3-22.45 802.25-18.5L802.25-18.5 802.25 0 796.1 0 796.1-26.45 801.45-26.45 801.9-23Q803.25-25.1 804.78-26.13 806.3-27.15 808.45-27.15L808.45-27.15ZM820.15-26.45L826.3-26.45 826.3 0 820.15 0 820.15-26.45ZM823.2-39.65Q824.85-39.65 825.88-38.6 826.9-37.55 826.9-35.9L826.9-35.9Q826.9-34.3 825.88-33.25 824.85-32.2 823.2-32.2L823.2-32.2Q821.55-32.2 820.53-33.25 819.5-34.3 819.5-35.9L819.5-35.9Q819.5-37.55 820.53-38.6 821.55-39.65 823.2-39.65L823.2-39.65ZM841.4-27.15Q846.4-27.15 849.18-23.65 851.95-20.15 851.95-13.25L851.95-13.25Q851.95-6.65 849.15-2.95 846.35 0.75 841.4 0.75L841.4 0.75Q836.45 0.75 833.65-2.88 830.85-6.5 830.85-13.25L830.85-13.25Q830.85-19.95 833.65-23.55 836.45-27.15 841.4-27.15L841.4-27.15ZM841.4-22.5Q839.25-22.5 838.25-20.38 837.25-18.25 837.25-13.25L837.25-13.25Q837.25-8.2 838.25-6.08 839.25-3.95 841.4-3.95L841.4-3.95Q843.55-3.95 844.55-6.08 845.55-8.2 845.55-13.25L845.55-13.25Q845.55-18.3 844.55-20.4 843.55-22.5 841.4-22.5L841.4-22.5ZM868.85-27.15Q871.7-27.15 873.35-25.1 875-23.05 875-19.6L875-19.6 875 0 868.85 0 868.85-18.9Q868.85-20.8 868.33-21.63 867.8-22.45 866.8-22.45L866.8-22.45Q864.7-22.45 862.65-18.5L862.65-18.5 862.65 0 856.5 0 856.5-26.45 861.85-26.45 862.3-23Q863.65-25.1 865.18-26.13 866.7-27.15 868.85-27.15L868.85-27.15Z" opacity="1" transform="matrix(1,0,0,1,0,0)" fill="#ffffff" class="slogan-text-1" data-fill-palette-color="secondary" id="text-1"></path></svg></g></svg></g></svg></g></svg></g><g transform="matrix(1,0,0,1,47.60865450151023,0)"><svg viewBox="0 0 150.4362077969795 150.43487069168447" height="150.43487069168447" width="150.4362077969795"><g><svg xmlns="http://www.w3.org/2000/svg" xmlns:xlink="http://www.w3.org/1999/xlink" version="1.1" x="0" y="0" viewBox="0 -7.009014912053304e-8 100 99.99911118120126" enable-background="new 0 0 100 100" xml:space="preserve" id="icon-0" width="150.4362077969795" height="150.43487069168447" class="icon-icon-0" data-fill-palette-color="accent"><path d="M69.089 6.549C65.931 3.961 63.737 4.57 60.573 10.211 58.483 13.941 55.156 14.391 53.118 14.277L53.132 13.531C55.495 12.356 57.161 9.973 57.161 7.164A7.16 7.16 0 0 0 50 0C46.048 0 42.826 3.2 42.826 7.165 42.826 9.974 44.493 12.357 46.862 13.526L46.869 14.278C44.838 14.392 41.504 13.943 39.414 10.212 36.263 4.571 34.062 3.962 30.912 6.55 27.741 9.141 15.241 24.079 0 22.708 0 22.708 3.021 29.567 11.256 28.047 11.256 28.047 15.657 32.614 22.799 29.417 22.799 29.417 26.51 32.764 32.415 29.72 32.415 29.72 36.803 33.073 41.484 30.176 41.484 30.176 44.127 32.09 47.064 31.595L47.252 48.841C46.92 48.776 46.653 48.698 46.302 48.636 46.289 48.63 41.185 47.536 35.787 46.022 30.592 44.661 24.889 42.454 24.049 41.305 24.121 41.233 24.238 41.178 24.388 41.106 24.85 40.862 25.638 40.611 26.576 40.419 28.483 40.031 31.068 39.833 33.666 39.729 38.829 39.543 39.76 39.768 39.851 39.785 39.858 39.622 42.839 40.137 43.66 37.099 43.628 37.073 43.719 36.949 43.667 36.877 43.498 34.787 41.89 34.683 40.574 34.439 38.439 34.159 39.552 34.27 36.675 34.306 31.948 34.658 17.384 33.479 15.549 41.145 15.549 41.36 15.536 41.497 15.51 41.686 16.122 48.362 29.944 51.259 39.957 53.255 36.559 55.582 34.742 58.609 34.019 62.523 33.674 66.696 36.988 70.668 44.683 75.107 38.836 79.248 34.995 83.134 35.308 87.829 35.855 91.657 39.234 96.774 45.874 99.997 45.894 100.004 45.9 99.99 45.913 99.997H45.933S41.285 92.907 40.972 89.027C40.666 86.761 41.955 83.415 47.606 79.384L47.769 93.564H47.795C47.834 94.769 48.765 95.732 49.937 95.732S52.04 94.769 52.079 93.564H52.099L52.287 79.755C57.495 83.616 58.674 86.825 58.374 89.026 58.062 92.906 53.42 99.996 53.42 99.996H53.433S53.447 100.003 53.479 99.996C60.113 96.773 63.499 91.656 64.039 87.828 64.351 83.134 60.511 79.247 54.671 75.106 62.359 70.667 65.68 66.695 65.335 62.522 64.612 58.609 62.796 55.582 59.391 53.254 69.411 51.258 83.226 48.361 83.838 41.685A3.5 3.5 0 0 1 83.799 41.144C81.969 33.478 67.399 34.657 62.672 34.305 59.795 34.269 60.908 34.159 58.773 34.438 57.458 34.682 55.85 34.786 55.68 36.876 55.628 36.948 55.726 37.071 55.694 37.098 56.514 40.135 59.496 39.62 59.503 39.784 59.587 39.767 60.519 39.543 65.688 39.728 68.279 39.832 70.864 40.031 72.771 40.418 73.715 40.61 74.49 40.86 74.959 41.105 75.109 41.177 75.232 41.232 75.305 41.304 74.465 42.453 68.762 44.66 63.567 46.021 58.163 47.535 53.059 48.628 53.046 48.635 52.916 48.661 52.812 48.687 52.682 48.71L52.904 31.591C55.859 32.109 58.522 30.175 58.522 30.175 63.19 33.072 67.591 29.719 67.591 29.719 73.495 32.763 77.2 29.416 77.2 29.416 84.342 32.613 88.743 28.046 88.743 28.046 96.973 29.567 100 22.708 100 22.708 84.753 24.079 72.253 9.141 69.089 6.549M43.268 67.711C41.361 66.526 40.469 64.925 40.644 63.844 40.748 62.34 40.227 58.753 47.343 56.142L47.506 70.387C46.133 69.521 44.713 68.629 43.268 67.711M58.698 63.844C58.874 64.925 57.981 66.527 56.074 67.711 54.824 68.512 53.6 69.273 52.402 70.028L52.585 56.363C59.075 58.961 58.594 62.386 58.698 63.844" fill="#ffffff" data-fill-palette-color="accent"></path></svg></g></svg></g><g></g></svg></g></svg></g><g><path d="M186.739 41.473A81.385 81.385 0 0 1 208.781 41.473L206.588 41.473A79.191 79.191 0 0 0 188.932 41.473L186.739 41.473M186.739 205.727A81.385 81.385 0 0 0 208.781 205.727L206.588 205.727A79.191 79.191 0 0 1 188.932 205.727L186.739 205.727" fill="#ffffff" stroke="transparent" data-fill-palette-color="tertiary"></path></g></svg></g><defs></defs></svg><rect width="395.52" height="247.2" fill="none" stroke="none" visibility="hidden"></rect></g></svg></g></svg>